<mxfile host="www.draw.io" modified="2020-01-14T12:29:16.267Z" agent="Mozilla/5.0 (X11; Linux x86_64; rv:68.0) Gecko/20100101 Firefox/68.0" etag="64wskaX5e1Nv5vkmlDmq" version="12.5.1" type="github">
  <diagram id="VGJH4sr8CrQg2eb5v-pZ" name="Page-1">
    <mxGraphModel dx="768" dy="606" grid="1" gridSize="10" guides="1" tooltips="1" connect="1" arrows="1" fold="1" page="1" pageScale="1" pageWidth="850" pageHeight="1100" math="0" shadow="0">
      <root>
        <mxCell id="0"/>
        <mxCell id="1" parent="0"/>
        <mxCell id="KBGUTtBL2AwDtEbqCHF6-25" value="8. Solicita paradas" style="text;html=1;strokeColor=none;fillColor=none;align=center;verticalAlign=middle;whiteSpace=wrap;rounded=0;" parent="1" vertex="1">
          <mxGeometry x="659" y="136" width="90" height="60" as="geometry"/>
        </mxCell>
        <mxCell id="NwCVMD1DLwwMlpR3E5rk-18" value="15. Solicitud&amp;nbsp; Ruta origen-destino" style="text;html=1;strokeColor=none;fillColor=none;align=center;verticalAlign=middle;whiteSpace=wrap;rounded=0;" vertex="1" parent="1">
          <mxGeometry x="659" y="80" width="90" height="90" as="geometry"/>
        </mxCell>
        <mxCell id="nBfQ12rVYIrD_7408x3T-1" value=":Usuario" style="shape=umlActor;verticalLabelPosition=bottom;labelBackgroundColor=#ffffff;verticalAlign=top;html=1;outlineConnect=0;" parent="1" vertex="1">
          <mxGeometry x="50" y="170" width="30" height="60" as="geometry"/>
        </mxCell>
        <mxCell id="nBfQ12rVYIrD_7408x3T-16" style="rounded=0;orthogonalLoop=1;jettySize=auto;html=1;endArrow=none;endFill=0;fillColor=#dae8fc;strokeColor=#00CCCC;entryX=0.5;entryY=0.5;entryDx=0;entryDy=0;entryPerimeter=0;" parent="1" source="nBfQ12rVYIrD_7408x3T-2" target="nBfQ12rVYIrD_7408x3T-1" edge="1">
          <mxGeometry relative="1" as="geometry">
            <mxPoint x="140" y="168" as="targetPoint"/>
          </mxGeometry>
        </mxCell>
        <mxCell id="nBfQ12rVYIrD_7408x3T-2" value=":IUsuario" style="shape=umlBoundary;whiteSpace=wrap;html=1;" parent="1" vertex="1">
          <mxGeometry x="180" y="160" width="100" height="80" as="geometry"/>
        </mxCell>
        <mxCell id="by7-wM_vD5y1pT4y-xTU-1" style="rounded=0;orthogonalLoop=1;jettySize=auto;html=1;entryX=1.02;entryY=0.588;entryDx=0;entryDy=0;entryPerimeter=0;endArrow=none;endFill=0;" parent="1" source="nBfQ12rVYIrD_7408x3T-4" target="nBfQ12rVYIrD_7408x3T-2" edge="1">
          <mxGeometry relative="1" as="geometry"/>
        </mxCell>
        <mxCell id="by7-wM_vD5y1pT4y-xTU-2" style="edgeStyle=none;rounded=0;orthogonalLoop=1;jettySize=auto;html=1;entryX=1;entryY=0.375;entryDx=0;entryDy=0;entryPerimeter=0;endArrow=none;endFill=0;" parent="1" source="nBfQ12rVYIrD_7408x3T-4" target="nBfQ12rVYIrD_7408x3T-5" edge="1">
          <mxGeometry relative="1" as="geometry"/>
        </mxCell>
        <mxCell id="by7-wM_vD5y1pT4y-xTU-3" style="edgeStyle=none;rounded=0;orthogonalLoop=1;jettySize=auto;html=1;entryX=1.01;entryY=0.4;entryDx=0;entryDy=0;entryPerimeter=0;endArrow=none;endFill=0;" parent="1" source="nBfQ12rVYIrD_7408x3T-4" target="nBfQ12rVYIrD_7408x3T-13" edge="1">
          <mxGeometry relative="1" as="geometry"/>
        </mxCell>
        <mxCell id="by7-wM_vD5y1pT4y-xTU-4" style="edgeStyle=none;rounded=0;orthogonalLoop=1;jettySize=auto;html=1;endArrow=none;endFill=0;" parent="1" source="nBfQ12rVYIrD_7408x3T-4" target="nBfQ12rVYIrD_7408x3T-14" edge="1">
          <mxGeometry relative="1" as="geometry"/>
        </mxCell>
        <mxCell id="nBfQ12rVYIrD_7408x3T-4" value=":Gestor Rutas" style="ellipse;shape=umlControl;whiteSpace=wrap;html=1;" parent="1" vertex="1">
          <mxGeometry x="390" y="280" width="70" height="80" as="geometry"/>
        </mxCell>
        <mxCell id="nBfQ12rVYIrD_7408x3T-18" style="rounded=0;orthogonalLoop=1;jettySize=auto;html=1;endArrow=none;endFill=0;strokeColor=#00CCCC;entryX=0.5;entryY=0.5;entryDx=0;entryDy=0;entryPerimeter=0;" parent="1" source="nBfQ12rVYIrD_7408x3T-5" target="nBfQ12rVYIrD_7408x3T-6" edge="1">
          <mxGeometry relative="1" as="geometry">
            <mxPoint x="130" y="280" as="targetPoint"/>
          </mxGeometry>
        </mxCell>
        <mxCell id="nBfQ12rVYIrD_7408x3T-5" value=":IUClienteGPS" style="shape=umlBoundary;whiteSpace=wrap;html=1;" parent="1" vertex="1">
          <mxGeometry x="180" y="420" width="100" height="80" as="geometry"/>
        </mxCell>
        <mxCell id="nBfQ12rVYIrD_7408x3T-6" value=":ClienteGPS" style="shape=umlActor;verticalLabelPosition=bottom;labelBackgroundColor=#ffffff;verticalAlign=top;html=1;outlineConnect=0;" parent="1" vertex="1">
          <mxGeometry x="50" y="430" width="30" height="60" as="geometry"/>
        </mxCell>
        <mxCell id="nBfQ12rVYIrD_7408x3T-7" value=":Servicio Web EMA" style="shape=umlActor;verticalLabelPosition=bottom;labelBackgroundColor=#ffffff;verticalAlign=top;html=1;outlineConnect=0;" parent="1" vertex="1">
          <mxGeometry x="780" y="170" width="30" height="60" as="geometry"/>
        </mxCell>
        <mxCell id="nBfQ12rVYIrD_7408x3T-12" value=":API Google Maps" style="shape=umlActor;verticalLabelPosition=bottom;labelBackgroundColor=#ffffff;verticalAlign=top;html=1;outlineConnect=0;" parent="1" vertex="1">
          <mxGeometry x="780" y="440" width="30" height="60" as="geometry"/>
        </mxCell>
        <mxCell id="nBfQ12rVYIrD_7408x3T-20" style="rounded=0;orthogonalLoop=1;jettySize=auto;html=1;endArrow=none;endFill=0;strokeColor=#00CCCC;entryX=0.5;entryY=0.5;entryDx=0;entryDy=0;entryPerimeter=0;" parent="1" source="nBfQ12rVYIrD_7408x3T-13" target="nBfQ12rVYIrD_7408x3T-7" edge="1">
          <mxGeometry relative="1" as="geometry">
            <mxPoint x="140" y="400" as="targetPoint"/>
          </mxGeometry>
        </mxCell>
        <mxCell id="nBfQ12rVYIrD_7408x3T-13" value=":IUServicio Web EMA" style="shape=umlBoundary;whiteSpace=wrap;html=1;direction=west;" parent="1" vertex="1">
          <mxGeometry x="550" y="160" width="100" height="80" as="geometry"/>
        </mxCell>
        <mxCell id="nBfQ12rVYIrD_7408x3T-21" style="rounded=0;orthogonalLoop=1;jettySize=auto;html=1;endArrow=none;endFill=0;strokeColor=#00CCCC;entryX=0.5;entryY=0.5;entryDx=0;entryDy=0;entryPerimeter=0;" parent="1" source="nBfQ12rVYIrD_7408x3T-14" target="nBfQ12rVYIrD_7408x3T-12" edge="1">
          <mxGeometry relative="1" as="geometry">
            <mxPoint x="140" y="530" as="targetPoint"/>
          </mxGeometry>
        </mxCell>
        <mxCell id="nBfQ12rVYIrD_7408x3T-14" value=":IUAPI Google Maps" style="shape=umlBoundary;whiteSpace=wrap;html=1;direction=west;" parent="1" vertex="1">
          <mxGeometry x="559" y="430" width="100" height="80" as="geometry"/>
        </mxCell>
        <mxCell id="KBGUTtBL2AwDtEbqCHF6-5" value="1. Selección Ruta" style="text;html=1;strokeColor=none;fillColor=none;align=center;verticalAlign=middle;whiteSpace=wrap;rounded=0;" parent="1" vertex="1">
          <mxGeometry x="80" y="140" width="90" height="60" as="geometry"/>
        </mxCell>
        <mxCell id="KBGUTtBL2AwDtEbqCHF6-6" value="2. Ruta Seleccionada" style="text;html=1;strokeColor=none;fillColor=none;align=center;verticalAlign=middle;whiteSpace=wrap;rounded=0;" parent="1" vertex="1">
          <mxGeometry x="321" y="184" width="90" height="60" as="geometry"/>
        </mxCell>
        <mxCell id="KBGUTtBL2AwDtEbqCHF6-8" value="" style="endArrow=classic;html=1;" parent="1" edge="1">
          <mxGeometry width="50" height="50" relative="1" as="geometry">
            <mxPoint x="290" y="200" as="sourcePoint"/>
            <mxPoint x="400" y="284" as="targetPoint"/>
          </mxGeometry>
        </mxCell>
        <mxCell id="KBGUTtBL2AwDtEbqCHF6-12" value="" style="endArrow=classic;html=1;" parent="1" edge="1">
          <mxGeometry width="50" height="50" relative="1" as="geometry">
            <mxPoint x="90" y="190" as="sourcePoint"/>
            <mxPoint x="170" y="190" as="targetPoint"/>
          </mxGeometry>
        </mxCell>
        <mxCell id="KBGUTtBL2AwDtEbqCHF6-13" value="" style="endArrow=classic;html=1;" parent="1" edge="1">
          <mxGeometry width="50" height="50" relative="1" as="geometry">
            <mxPoint x="398" y="361" as="sourcePoint"/>
            <mxPoint x="308" y="441" as="targetPoint"/>
          </mxGeometry>
        </mxCell>
        <mxCell id="KBGUTtBL2AwDtEbqCHF6-14" value="3. Solicitud de posición actual" style="text;html=1;strokeColor=none;fillColor=none;align=center;verticalAlign=middle;whiteSpace=wrap;rounded=0;" parent="1" vertex="1">
          <mxGeometry x="350" y="390" width="90" height="60" as="geometry"/>
        </mxCell>
        <mxCell id="KBGUTtBL2AwDtEbqCHF6-15" value="" style="endArrow=classic;html=1;" parent="1" edge="1">
          <mxGeometry width="50" height="50" relative="1" as="geometry">
            <mxPoint x="292" y="424" as="sourcePoint"/>
            <mxPoint x="380" y="345" as="targetPoint"/>
          </mxGeometry>
        </mxCell>
        <mxCell id="KBGUTtBL2AwDtEbqCHF6-16" value="" style="endArrow=classic;html=1;" parent="1" edge="1">
          <mxGeometry width="50" height="50" relative="1" as="geometry">
            <mxPoint x="175" y="470" as="sourcePoint"/>
            <mxPoint x="85" y="470" as="targetPoint"/>
          </mxGeometry>
        </mxCell>
        <mxCell id="KBGUTtBL2AwDtEbqCHF6-17" value="4. Escuchar posicion Actual" style="text;html=1;strokeColor=none;fillColor=none;align=center;verticalAlign=middle;whiteSpace=wrap;rounded=0;" parent="1" vertex="1">
          <mxGeometry x="98" y="460" width="90" height="60" as="geometry"/>
        </mxCell>
        <mxCell id="KBGUTtBL2AwDtEbqCHF6-18" value="" style="endArrow=classic;html=1;" parent="1" edge="1">
          <mxGeometry width="50" height="50" relative="1" as="geometry">
            <mxPoint x="90" y="450" as="sourcePoint"/>
            <mxPoint x="170" y="450" as="targetPoint"/>
          </mxGeometry>
        </mxCell>
        <mxCell id="KBGUTtBL2AwDtEbqCHF6-19" value="5. Posición actual" style="text;html=1;strokeColor=none;fillColor=none;align=center;verticalAlign=middle;whiteSpace=wrap;rounded=0;" parent="1" vertex="1">
          <mxGeometry x="80" y="400" width="90" height="60" as="geometry"/>
        </mxCell>
        <mxCell id="KBGUTtBL2AwDtEbqCHF6-20" value="6. Posición actual" style="text;html=1;strokeColor=none;fillColor=none;align=center;verticalAlign=middle;whiteSpace=wrap;rounded=0;" parent="1" vertex="1">
          <mxGeometry x="271" y="337" width="90" height="60" as="geometry"/>
        </mxCell>
        <mxCell id="KBGUTtBL2AwDtEbqCHF6-21" value="" style="endArrow=classic;html=1;" parent="1" edge="1">
          <mxGeometry width="50" height="50" relative="1" as="geometry">
            <mxPoint x="448" y="280" as="sourcePoint"/>
            <mxPoint x="536" y="201" as="targetPoint"/>
          </mxGeometry>
        </mxCell>
        <mxCell id="KBGUTtBL2AwDtEbqCHF6-22" value="" style="endArrow=classic;html=1;" parent="1" edge="1">
          <mxGeometry width="50" height="50" relative="1" as="geometry">
            <mxPoint x="548" y="228" as="sourcePoint"/>
            <mxPoint x="458" y="308" as="targetPoint"/>
          </mxGeometry>
        </mxCell>
        <mxCell id="KBGUTtBL2AwDtEbqCHF6-23" value="" style="endArrow=classic;html=1;" parent="1" edge="1">
          <mxGeometry width="50" height="50" relative="1" as="geometry">
            <mxPoint x="671" y="188" as="sourcePoint"/>
            <mxPoint x="751" y="188" as="targetPoint"/>
          </mxGeometry>
        </mxCell>
        <mxCell id="KBGUTtBL2AwDtEbqCHF6-24" value="7. Solicita paradas" style="text;html=1;strokeColor=none;fillColor=none;align=center;verticalAlign=middle;whiteSpace=wrap;rounded=0;" parent="1" vertex="1">
          <mxGeometry x="426" y="193" width="90" height="60" as="geometry"/>
        </mxCell>
        <mxCell id="KBGUTtBL2AwDtEbqCHF6-27" value="9. Paradas" style="text;html=1;strokeColor=none;fillColor=none;align=center;verticalAlign=middle;whiteSpace=wrap;rounded=0;" parent="1" vertex="1">
          <mxGeometry x="659" y="200" width="90" height="60" as="geometry"/>
        </mxCell>
        <mxCell id="KBGUTtBL2AwDtEbqCHF6-30" value="10. Parada" style="text;html=1;strokeColor=none;fillColor=none;align=center;verticalAlign=middle;whiteSpace=wrap;rounded=0;" parent="1" vertex="1">
          <mxGeometry x="500" y="244" width="90" height="60" as="geometry"/>
        </mxCell>
        <mxCell id="KBGUTtBL2AwDtEbqCHF6-31" value="" style="endArrow=classic;html=1;" parent="1" edge="1">
          <mxGeometry width="50" height="50" relative="1" as="geometry">
            <mxPoint x="380" y="300" as="sourcePoint"/>
            <mxPoint x="283" y="222" as="targetPoint"/>
          </mxGeometry>
        </mxCell>
        <mxCell id="NwCVMD1DLwwMlpR3E5rk-9" value="¡¡¡OJO!!! El diagrama de iteración es entre objetos, no entre clases. Por eso hay que poner ( : )" style="text;html=1;strokeColor=none;fillColor=none;align=center;verticalAlign=middle;whiteSpace=wrap;rounded=0;" vertex="1" parent="1">
          <mxGeometry x="39" y="10" width="172" height="60" as="geometry"/>
        </mxCell>
        <mxCell id="KBGUTtBL2AwDtEbqCHF6-32" value="11. Posición paradas" style="text;html=1;strokeColor=none;fillColor=none;align=center;verticalAlign=middle;whiteSpace=wrap;rounded=0;" parent="1" vertex="1">
          <mxGeometry x="252" y="239" width="90" height="60" as="geometry"/>
        </mxCell>
        <mxCell id="NwCVMD1DLwwMlpR3E5rk-11" value="" style="endArrow=classic;html=1;" edge="1" parent="1">
          <mxGeometry width="50" height="50" relative="1" as="geometry">
            <mxPoint x="170" y="209" as="sourcePoint"/>
            <mxPoint x="80" y="209" as="targetPoint"/>
          </mxGeometry>
        </mxCell>
        <mxCell id="NwCVMD1DLwwMlpR3E5rk-12" value="12. Posición paradas " style="text;html=1;strokeColor=none;fillColor=none;align=center;verticalAlign=middle;whiteSpace=wrap;rounded=0;" vertex="1" parent="1">
          <mxGeometry x="90" y="184" width="90" height="90" as="geometry"/>
        </mxCell>
        <mxCell id="NwCVMD1DLwwMlpR3E5rk-14" style="edgeStyle=none;rounded=0;orthogonalLoop=1;jettySize=auto;html=1;exitX=0.5;exitY=1;exitDx=0;exitDy=0;" edge="1" parent="1" source="NwCVMD1DLwwMlpR3E5rk-12" target="NwCVMD1DLwwMlpR3E5rk-12">
          <mxGeometry relative="1" as="geometry"/>
        </mxCell>
        <mxCell id="NwCVMD1DLwwMlpR3E5rk-15" value="13. Selección parada destino" style="text;html=1;strokeColor=none;fillColor=none;align=center;verticalAlign=middle;whiteSpace=wrap;rounded=0;" vertex="1" parent="1">
          <mxGeometry x="80" y="94" width="90" height="90" as="geometry"/>
        </mxCell>
        <mxCell id="NwCVMD1DLwwMlpR3E5rk-16" value="14. Parada destino seleccionado" style="text;html=1;strokeColor=none;fillColor=none;align=center;verticalAlign=middle;whiteSpace=wrap;rounded=0;" vertex="1" parent="1">
          <mxGeometry x="321" y="131" width="90" height="90" as="geometry"/>
        </mxCell>
        <mxCell id="NwCVMD1DLwwMlpR3E5rk-17" value="15. Ruta origen-destino" style="text;html=1;strokeColor=none;fillColor=none;align=center;verticalAlign=middle;whiteSpace=wrap;rounded=0;" vertex="1" parent="1">
          <mxGeometry x="426" y="140" width="90" height="90" as="geometry"/>
        </mxCell>
        <mxCell id="NwCVMD1DLwwMlpR3E5rk-19" value="17. Ruta usuario" style="text;html=1;strokeColor=none;fillColor=none;align=center;verticalAlign=middle;whiteSpace=wrap;rounded=0;" vertex="1" parent="1">
          <mxGeometry x="659" y="214" width="90" height="90" as="geometry"/>
        </mxCell>
        <mxCell id="NwCVMD1DLwwMlpR3E5rk-20" value="" style="endArrow=classic;html=1;" edge="1" parent="1">
          <mxGeometry width="50" height="50" relative="1" as="geometry">
            <mxPoint x="760" y="212" as="sourcePoint"/>
            <mxPoint x="670" y="212" as="targetPoint"/>
          </mxGeometry>
        </mxCell>
        <mxCell id="NwCVMD1DLwwMlpR3E5rk-21" value="18. Ruta usuario" style="text;html=1;strokeColor=none;fillColor=none;align=center;verticalAlign=middle;whiteSpace=wrap;rounded=0;" vertex="1" parent="1">
          <mxGeometry x="500" y="253" width="90" height="90" as="geometry"/>
        </mxCell>
        <mxCell id="NwCVMD1DLwwMlpR3E5rk-22" value="" style="endArrow=classic;html=1;" edge="1" parent="1">
          <mxGeometry width="50" height="50" relative="1" as="geometry">
            <mxPoint x="470" y="343" as="sourcePoint"/>
            <mxPoint x="570" y="427" as="targetPoint"/>
          </mxGeometry>
        </mxCell>
        <mxCell id="NwCVMD1DLwwMlpR3E5rk-23" value="" style="endArrow=classic;html=1;" edge="1" parent="1">
          <mxGeometry width="50" height="50" relative="1" as="geometry">
            <mxPoint x="557" y="438" as="sourcePoint"/>
            <mxPoint x="460" y="360" as="targetPoint"/>
          </mxGeometry>
        </mxCell>
        <mxCell id="NwCVMD1DLwwMlpR3E5rk-24" value="19. Ruta usuario" style="text;html=1;strokeColor=none;fillColor=none;align=center;verticalAlign=middle;whiteSpace=wrap;rounded=0;" vertex="1" parent="1">
          <mxGeometry x="500" y="310" width="90" height="90" as="geometry"/>
        </mxCell>
        <mxCell id="NwCVMD1DLwwMlpR3E5rk-25" value="20. Ruta usuario" style="text;html=1;strokeColor=none;fillColor=none;align=center;verticalAlign=middle;whiteSpace=wrap;rounded=0;" vertex="1" parent="1">
          <mxGeometry x="656" y="400" width="90" height="90" as="geometry"/>
        </mxCell>
        <mxCell id="NwCVMD1DLwwMlpR3E5rk-26" value="" style="endArrow=classic;html=1;" edge="1" parent="1">
          <mxGeometry width="50" height="50" relative="1" as="geometry">
            <mxPoint x="673" y="459" as="sourcePoint"/>
            <mxPoint x="753" y="459" as="targetPoint"/>
          </mxGeometry>
        </mxCell>
        <mxCell id="NwCVMD1DLwwMlpR3E5rk-27" value="" style="endArrow=classic;html=1;" edge="1" parent="1">
          <mxGeometry width="50" height="50" relative="1" as="geometry">
            <mxPoint x="761" y="480" as="sourcePoint"/>
            <mxPoint x="671" y="480" as="targetPoint"/>
          </mxGeometry>
        </mxCell>
        <mxCell id="NwCVMD1DLwwMlpR3E5rk-28" value="21. Mapa" style="text;html=1;strokeColor=none;fillColor=none;align=center;verticalAlign=middle;whiteSpace=wrap;rounded=0;" vertex="1" parent="1">
          <mxGeometry x="666" y="460" width="90" height="90" as="geometry"/>
        </mxCell>
        <mxCell id="NwCVMD1DLwwMlpR3E5rk-29" value="22. Mapa" style="text;html=1;strokeColor=none;fillColor=none;align=center;verticalAlign=middle;whiteSpace=wrap;rounded=0;" vertex="1" parent="1">
          <mxGeometry x="450" y="375" width="90" height="90" as="geometry"/>
        </mxCell>
        <mxCell id="NwCVMD1DLwwMlpR3E5rk-32" value="23. Mapa" style="text;html=1;strokeColor=none;fillColor=none;align=center;verticalAlign=middle;whiteSpace=wrap;rounded=0;" vertex="1" parent="1">
          <mxGeometry x="245" y="247" width="90" height="90" as="geometry"/>
        </mxCell>
        <mxCell id="NwCVMD1DLwwMlpR3E5rk-33" value="24. Mapa" style="text;html=1;strokeColor=none;fillColor=none;align=center;verticalAlign=middle;whiteSpace=wrap;rounded=0;" vertex="1" parent="1">
          <mxGeometry x="80" y="209" width="90" height="90" as="geometry"/>
        </mxCell>
      </root>
    </mxGraphModel>
  </diagram>
</mxfile>
